<?xml version="1.0" encoding="UTF-8"?>
<svg width="24px" height="24px" viewBox="0 0 24 24" version="1.1" xmlns="http://www.w3.org/2000/svg" xmlns:xlink="http://www.w3.org/1999/xlink">
    <!-- Generator: Sketch 48.2 (47327) - http://www.bohemiancoding.com/sketch -->
    <title>app_logo_24x24</title>
    <desc>Created with Sketch.</desc>
    <defs></defs>
    <g id="Page-1" stroke="none" stroke-width="1" fill="none" fill-rule="evenodd">
        <g id="app_logo_24x24">
            <g id="Group-13-Copy-2">
                <g id="Group-5">
                    <circle id="Oval-4" stroke="#000000" stroke-width="2" cx="12" cy="12" r="11"></circle>
                    <path d="M16,5 C16.5522847,5 17,5.44771525 17,6 L17,18 C17,18.5522847 16.5522847,19 16,19 C15.4477153,19 15,18.5522847 15,18 L15,6 C15,5.44771525 15.4477153,5 16,5 Z" id="Combined-Shape" fill="#000000"></path>
                    <path d="M15.2972712,5.29727116 L16.7114847,6.71148472 L4.307085,19.1158844 C4.17691024,19.2460592 4.0197754,19.3328424 3.85365387,19.376234 C3.68753234,19.4196255 3.51242411,19.4196255 3.34630258,19.376234 C3.18018105,19.3328424 3.02304621,19.2460592 2.89287144,19.1158844 C2.50234715,18.7253601 2.50234715,18.0921952 2.89287144,17.7016709 L15.2972712,5.29727116 Z" id="Combined-Shape-Copy" fill="#000000"></path>
                </g>
            </g>
        </g>
    </g>
</svg>